<?xml version="1.0" encoding="UTF-8"?>
<svg id="Layer_2" data-name="Layer 2" xmlns="http://www.w3.org/2000/svg" viewBox="0 0 303.67 260.4">
  <defs>
    <style>
      .cls-1 {
        fill: #0e0f0f;
      }

      .cls-2 {
        fill: #feca0c;
      }

      .cls-3 {
        fill: #fff;
      }

      .cls-4 {
        fill: #2a1900;
        font-family: NiseJSRF, NiseJSRF;
        font-size: 29.97px;
      }

      .cls-5 {
        fill: #ffefde;
        stroke: #1a1818;
        stroke-miterlimit: 10;
      }
    </style>
  </defs>
  <g id="Layer_1-2" data-name="Layer 1">
    <path class="cls-5" d="M152.24,6.59c-28.8,16.48-63.1,19.82-97.31.57L8.6,53.64c15.33,15.96,20.63,34.14,18.19,51.84-.93,6.72-2.66,13.53-6,19.8-2.32,4.35-5.26,7.86-8.44,14.06-19.68,43.57,7.14,84.86,46.3,93.15,27.54,3.38,54.58-7.04,93.31,20.06,41.72-26.42,65.78-16.68,93.31-20.06,39.17-8.29,65.98-49.58,46.3-93.15-3.19-6.2-6.13-9.7-8.44-14.06-3.34-6.28-5.07-13.08-6-19.8-2.44-17.7,2.86-35.88,18.19-51.84L248.99,7.16c-34.2,19.25-68.51,15.9-97.31-.57h.55Z"/>
    <rect class="cls-1" x="4.45" y="151.21" width="288.16" height="37.85"/>
    <g id="kgvOFc.tif">
      <g>
        <path class="cls-3" d="M303.67,0v260.4H0V0h303.67ZM292.64,56.21c.42-.44,2.18-1.41,1.82-2.11L248.64,7.86c-25.51,15.41-57.6,17.44-84.97,5.58-4.08-1.77-7.88-3.99-11.8-6.06-20.49,12.66-45.41,16.67-68.99,11.5-9.75-2.14-19.03-6-27.6-11.02L9.37,54.26c1.18,1.39,2.66,2.7,3.9,4.13,16.2,18.64,19.48,45.31,7.84,67.26-2.01,3.79-4.69,7.2-6.75,10.95-19.16,34.91-2.56,78.87,34.62,92.38,16.92,6.15,33.08,2.87,50.5,4.11,18.84,1.34,37.2,8.1,52.39,19.17,15.4-10.97,33.58-17.82,52.55-19.17,15.87-1.13,31.61,1.67,47.1-2.97,37.45-11.21,56.36-53.39,40.23-89.15-2.47-5.47-6.09-9.98-8.86-15.16-12.31-23.03-8.08-50.86,9.74-69.61Z"/>
        <path d="M292.64,56.21c-17.82,18.75-22.05,46.57-9.74,69.61,2.77,5.19,6.39,9.69,8.86,15.16,16.13,35.76-2.77,77.94-40.23,89.15-15.49,4.64-31.23,1.84-47.1,2.97-18.97,1.35-37.15,8.2-52.55,19.17-15.19-11.07-33.55-17.83-52.39-19.17-17.42-1.24-33.58,2.04-50.5-4.11-37.18-13.52-53.78-57.47-34.62-92.38,2.06-3.75,4.74-7.16,6.75-10.95,11.64-21.95,8.36-48.62-7.84-67.26-1.25-1.43-2.72-2.74-3.9-4.13L55.28,7.86c8.58,5.02,17.85,8.88,27.6,11.02,23.58,5.18,48.5,1.16,68.99-11.5,3.92,2.07,7.72,4.29,11.8,6.06,27.36,11.86,59.46,9.83,84.97-5.58l45.82,46.24c.36.7-1.41,1.67-1.82,2.11ZM151.88,16.74c-24.72,13.64-54.72,16.16-81.46,7.03-4.67-1.6-9.17-3.64-13.61-5.78L20.49,54.48c18.04,21.46,20.55,52,6.95,76.48-1.66,3-3.8,5.7-5.49,8.67-16.35,28.8-4.95,65.25,24.65,79.6,17.29,8.38,34.51,4.54,52.9,5.76,18.6,1.23,36.78,7.36,52.37,17.4,15.69-9.9,33.68-16.12,52.3-17.39,17.38-1.19,34.13,2.31,50.69-4.69,29.02-12.27,42.53-46.26,29.81-75.3-2.25-5.15-5.43-9.12-8.1-13.9-12.71-22.74-11.58-50.31,3.12-71.8,1.15-1.68,2.41-3.3,3.74-4.85l-36.31-36.49c-29.63,15.4-66.01,14.75-95.25-1.25Z"/>
      </g>
    </g>
  </g>
  <g id="kiddcat">
    <g>
      <circle class="cls-2" cx="151.71" cy="71.67" r="26.11"/>
      <polygon class="cls-2" points="176.05 63.07 162.97 48.54 179.9 36.6 176.05 63.07"/>
      <polygon class="cls-2" points="127.63 63.07 140.7 48.54 123.77 36.6 127.63 63.07"/>
    </g>
    <path class="cls-2" d="M84.96,174.28H19.39v-8.28h65.57v8.28ZM183.7,165.99h-65.57v8.28h65.57v-8.28ZM284.54,165.99h-65.57v8.28h65.57v-8.28Z"/>
    <text class="cls-4" transform="translate(69.98 133.84)"><tspan x="0" y="0">guides</tspan></text>
  </g>
</svg>